<svg xmlns="http://www.w3.org/2000/svg" xmlns:xlink="http://www.w3.org/1999/xlink" width="500" zoomAndPan="magnify" viewBox="0 0 375 374.999991" height="500" preserveAspectRatio="xMidYMid meet" version="1.0"><defs><clipPath id="386c449b70"><path d="M 136.523438 75 L 145 75 L 145 175 L 136.523438 175 Z M 136.523438 75 " clip-rule="nonzero"/></clipPath><clipPath id="2250c47227"><path d="M 150 44.023438 L 158 44.023438 L 158 206.023438 L 150 206.023438 Z M 150 44.023438 " clip-rule="nonzero"/></clipPath><clipPath id="51e76b68af"><path d="M 356 113 L 363.773438 113 L 363.773438 137 L 356 137 Z M 356 113 " clip-rule="nonzero"/></clipPath><clipPath id="9c66ff888b"><path d="M 14.554688 44.023438 L 117.972656 44.023438 L 117.972656 147.523438 L 14.554688 147.523438 Z M 14.554688 44.023438 " clip-rule="nonzero"/></clipPath></defs><g clip-path="url(#386c449b70)"><path fill="#ffffff" d="M 140.28125 75.75 C 138.207031 75.75 136.523438 77.433594 136.523438 79.511719 L 136.523438 170.597656 C 136.523438 172.675781 138.207031 174.359375 140.28125 174.359375 C 142.359375 174.359375 144.039062 172.675781 144.039062 170.597656 L 144.039062 79.511719 C 144.039062 77.433594 142.359375 75.75 140.28125 75.75 " fill-opacity="1" fill-rule="nonzero"/></g><g clip-path="url(#2250c47227)"><path fill="#ffffff" d="M 154.011719 44.046875 C 151.933594 44.046875 150.25 45.730469 150.25 47.808594 L 150.25 202.300781 C 150.25 204.378906 151.933594 206.0625 154.011719 206.0625 C 156.085938 206.0625 157.769531 204.378906 157.769531 202.300781 L 157.769531 47.808594 C 157.769531 45.730469 156.085938 44.046875 154.011719 44.046875 " fill-opacity="1" fill-rule="nonzero"/></g><path fill="#ffffff" d="M 167.742188 63.066406 C 165.664062 63.066406 163.980469 64.753906 163.980469 66.832031 L 163.980469 183.277344 C 163.980469 185.355469 165.664062 187.039062 167.742188 187.039062 C 169.816406 187.039062 171.5 185.355469 171.5 183.277344 L 171.5 66.832031 C 171.5 64.753906 169.816406 63.066406 167.742188 63.066406 " fill-opacity="1" fill-rule="nonzero"/><path fill="#ffffff" d="M 181.46875 75.75 C 179.390625 75.75 177.710938 77.433594 177.710938 79.511719 L 177.710938 170.597656 C 177.710938 172.675781 179.390625 174.359375 181.46875 174.359375 C 183.546875 174.359375 185.230469 172.675781 185.230469 170.597656 L 185.230469 79.511719 C 185.230469 77.433594 183.546875 75.75 181.46875 75.75 " fill-opacity="1" fill-rule="nonzero"/><path fill="#ffffff" d="M 195.199219 101.109375 C 193.125 101.109375 191.441406 102.796875 191.441406 104.875 L 191.441406 145.234375 C 191.441406 147.3125 193.125 148.996094 195.199219 148.996094 C 197.273438 148.996094 198.957031 147.3125 198.957031 145.234375 L 198.957031 104.875 C 198.957031 102.796875 197.273438 101.109375 195.199219 101.109375 " fill-opacity="1" fill-rule="nonzero"/><path fill="#ffffff" d="M 208.929688 88.429688 C 206.851562 88.429688 205.167969 90.113281 205.167969 92.191406 L 205.167969 157.914062 C 205.167969 159.992188 206.851562 161.679688 208.929688 161.679688 C 211.003906 161.679688 212.6875 159.992188 212.6875 157.914062 L 212.6875 92.191406 C 212.6875 90.113281 211.003906 88.429688 208.929688 88.429688 " fill-opacity="1" fill-rule="nonzero"/><path fill="#ffffff" d="M 222.65625 107.453125 C 220.582031 107.453125 218.898438 109.136719 218.898438 111.214844 L 218.898438 138.894531 C 218.898438 140.972656 220.582031 142.65625 222.65625 142.65625 C 224.730469 142.65625 226.414062 140.972656 226.414062 138.894531 L 226.414062 111.214844 C 226.414062 109.136719 224.730469 107.453125 222.65625 107.453125 " fill-opacity="1" fill-rule="nonzero"/><path fill="#ffffff" d="M 236.386719 94.769531 C 234.308594 94.769531 232.625 96.453125 232.625 98.53125 L 232.625 151.574219 C 232.625 153.652344 234.308594 155.335938 236.386719 155.335938 C 238.460938 155.335938 240.148438 153.652344 240.148438 151.574219 L 240.148438 98.53125 C 240.148438 96.453125 238.460938 94.769531 236.386719 94.769531 " fill-opacity="1" fill-rule="nonzero"/><path fill="#ffffff" d="M 250.113281 75.75 C 248.039062 75.75 246.355469 77.433594 246.355469 79.511719 L 246.355469 170.597656 C 246.355469 172.675781 248.039062 174.359375 250.113281 174.359375 C 252.191406 174.359375 253.875 172.675781 253.875 170.597656 L 253.875 79.511719 C 253.875 77.433594 252.191406 75.75 250.113281 75.75 " fill-opacity="1" fill-rule="nonzero"/><path fill="#ffffff" d="M 263.84375 63.066406 C 261.769531 63.066406 260.082031 64.753906 260.082031 66.832031 L 260.082031 183.277344 C 260.082031 185.355469 261.769531 187.039062 263.84375 187.039062 C 265.921875 187.039062 267.605469 185.355469 267.605469 183.277344 L 267.605469 66.832031 C 267.605469 64.753906 265.921875 63.066406 263.84375 63.066406 " fill-opacity="1" fill-rule="nonzero"/><path fill="#ffffff" d="M 277.574219 75.75 C 275.5 75.75 273.816406 77.433594 273.816406 79.511719 L 273.816406 170.597656 C 273.816406 172.675781 275.5 174.359375 277.574219 174.359375 C 279.648438 174.359375 281.332031 172.675781 281.332031 170.597656 L 281.332031 79.511719 C 281.332031 77.433594 279.648438 75.75 277.574219 75.75 " fill-opacity="1" fill-rule="nonzero"/><path fill="#ffffff" d="M 291.300781 101.109375 C 289.226562 101.109375 287.542969 102.796875 287.542969 104.875 L 287.542969 145.234375 C 287.542969 147.3125 289.226562 148.996094 291.300781 148.996094 C 293.378906 148.996094 295.0625 147.3125 295.0625 145.234375 L 295.0625 104.875 C 295.0625 102.796875 293.378906 101.109375 291.300781 101.109375 " fill-opacity="1" fill-rule="nonzero"/><path fill="#ffffff" d="M 305.03125 94.769531 C 302.957031 94.769531 301.273438 96.453125 301.273438 98.53125 L 301.273438 151.574219 C 301.273438 153.652344 302.957031 155.335938 305.03125 155.335938 C 307.105469 155.335938 308.789062 153.652344 308.789062 151.574219 L 308.789062 98.53125 C 308.789062 96.453125 307.105469 94.769531 305.03125 94.769531 " fill-opacity="1" fill-rule="nonzero"/><path fill="#ffffff" d="M 318.761719 82.089844 C 316.683594 82.089844 315 83.773438 315 85.851562 L 315 164.257812 C 315 166.335938 316.683594 168.019531 318.761719 168.019531 C 320.835938 168.019531 322.519531 166.335938 322.519531 164.257812 L 322.519531 85.851562 C 322.519531 83.773438 320.835938 82.089844 318.761719 82.089844 " fill-opacity="1" fill-rule="nonzero"/><path fill="#ffffff" d="M 332.488281 101.109375 C 330.414062 101.109375 328.730469 102.796875 328.730469 104.875 L 328.730469 145.234375 C 328.730469 147.3125 330.414062 148.996094 332.488281 148.996094 C 334.566406 148.996094 336.25 147.3125 336.25 145.234375 L 336.25 104.875 C 336.25 102.796875 334.566406 101.109375 332.488281 101.109375 " fill-opacity="1" fill-rule="nonzero"/><path fill="#ffffff" d="M 346.21875 107.453125 C 344.144531 107.453125 342.460938 109.136719 342.460938 111.214844 L 342.460938 138.894531 C 342.460938 140.972656 344.144531 142.65625 346.21875 142.65625 C 348.296875 142.65625 349.980469 140.972656 349.980469 138.894531 L 349.980469 111.214844 C 349.980469 109.136719 348.296875 107.453125 346.21875 107.453125 " fill-opacity="1" fill-rule="nonzero"/><g clip-path="url(#51e76b68af)"><path fill="#ffffff" d="M 359.945312 113.792969 C 357.871094 113.792969 356.1875 115.476562 356.1875 117.554688 L 356.1875 132.554688 C 356.1875 134.632812 357.871094 136.316406 359.945312 136.316406 C 362.023438 136.316406 363.707031 134.632812 363.707031 132.554688 L 363.707031 117.554688 C 363.707031 115.476562 362.023438 113.792969 359.945312 113.792969 " fill-opacity="1" fill-rule="nonzero"/></g><g clip-path="url(#9c66ff888b)"><path fill="#ffffff" d="M 118.003906 44.023438 L 118.066406 126.824219 L 97.355469 126.824219 L 97.355469 147.523438 L 76.664062 126.824219 L 14.554688 126.824219 L 14.554688 44.023438 Z M 92.179688 69.898438 L 71.480469 69.898438 L 71.480469 90.597656 L 81.828125 106.121094 L 92.179688 106.121094 L 81.828125 90.597656 L 92.179688 90.597656 Z M 61.128906 69.898438 L 40.429688 69.898438 L 40.429688 90.597656 L 50.78125 106.121094 L 61.128906 106.121094 L 50.78125 90.597656 L 61.128906 90.597656 Z M 61.128906 69.898438 " fill-opacity="1" fill-rule="nonzero"/></g></svg>