<svg xmlns="http://www.w3.org/2000/svg" xmlns:xlink="http://www.w3.org/1999/xlink" width="300" zoomAndPan="magnify" viewBox="0 0 224.87999 149.999998" height="200" preserveAspectRatio="xMidYMid meet" version="1.0"><defs><clipPath id="bdbb9ef283"><path d="M 79.316406 43 L 85 43 L 85 107 L 79.316406 107 Z M 79.316406 43 " clip-rule="nonzero"/></clipPath><clipPath id="b66e6c7206"><path d="M 87 23.945312 L 93 23.945312 L 93 126.246094 L 87 126.246094 Z M 87 23.945312 " clip-rule="nonzero"/></clipPath><clipPath id="0c33500baf"><path d="M 218 68 L 222.824219 68 L 222.824219 83 L 218 83 Z M 218 68 " clip-rule="nonzero"/></clipPath><clipPath id="1c47192714"><path d="M 2.296875 23.945312 L 67.605469 23.945312 L 67.605469 89.300781 L 2.296875 89.300781 Z M 2.296875 23.945312 " clip-rule="nonzero"/></clipPath></defs><g clip-path="url(#bdbb9ef283)"><path fill="#2bed3e" d="M 81.691406 43.976562 C 80.382812 43.976562 79.320312 45.042969 79.320312 46.355469 L 79.320312 103.875 C 79.320312 105.1875 80.382812 106.25 81.691406 106.25 C 83.003906 106.25 84.066406 105.1875 84.066406 103.875 L 84.066406 46.355469 C 84.066406 45.042969 83.003906 43.976562 81.691406 43.976562 " fill-opacity="1" fill-rule="nonzero"/></g><g clip-path="url(#b66e6c7206)"><path fill="#2bed3e" d="M 90.363281 23.957031 C 89.050781 23.957031 87.988281 25.023438 87.988281 26.335938 L 87.988281 123.894531 C 87.988281 125.207031 89.050781 126.269531 90.363281 126.269531 C 91.671875 126.269531 92.734375 125.207031 92.734375 123.894531 L 92.734375 26.335938 C 92.734375 25.023438 91.671875 23.957031 90.363281 23.957031 " fill-opacity="1" fill-rule="nonzero"/></g><path fill="#2bed3e" d="M 99.03125 35.96875 C 97.71875 35.96875 96.65625 37.035156 96.65625 38.347656 L 96.65625 111.882812 C 96.65625 113.195312 97.71875 114.257812 99.03125 114.257812 C 100.34375 114.257812 101.40625 113.195312 101.40625 111.882812 L 101.40625 38.347656 C 101.40625 37.035156 100.34375 35.96875 99.03125 35.96875 " fill-opacity="1" fill-rule="nonzero"/><path fill="#2bed3e" d="M 107.703125 43.976562 C 106.390625 43.976562 105.328125 45.042969 105.328125 46.355469 L 105.328125 103.875 C 105.328125 105.1875 106.390625 106.25 107.703125 106.25 C 109.011719 106.25 110.074219 105.1875 110.074219 103.875 L 110.074219 46.355469 C 110.074219 45.042969 109.011719 43.976562 107.703125 43.976562 " fill-opacity="1" fill-rule="nonzero"/><path fill="#2bed3e" d="M 116.371094 59.996094 C 115.0625 59.996094 114 61.058594 114 62.371094 L 114 87.859375 C 114 89.171875 115.0625 90.234375 116.371094 90.234375 C 117.683594 90.234375 118.746094 89.171875 118.746094 87.859375 L 118.746094 62.371094 C 118.746094 61.058594 117.683594 59.996094 116.371094 59.996094 " fill-opacity="1" fill-rule="nonzero"/><path fill="#2bed3e" d="M 125.042969 51.988281 C 123.730469 51.988281 122.667969 53.050781 122.667969 54.363281 L 122.667969 95.867188 C 122.667969 97.179688 123.730469 98.242188 125.042969 98.242188 C 126.351562 98.242188 127.414062 97.179688 127.414062 95.867188 L 127.414062 54.363281 C 127.414062 53.050781 126.351562 51.988281 125.042969 51.988281 " fill-opacity="1" fill-rule="nonzero"/><path fill="#2bed3e" d="M 133.710938 64 C 132.398438 64 131.335938 65.0625 131.335938 66.375 L 131.335938 83.855469 C 131.335938 85.164062 132.398438 86.230469 133.710938 86.230469 C 135.023438 86.230469 136.085938 85.164062 136.085938 83.855469 L 136.085938 66.375 C 136.085938 65.0625 135.023438 64 133.710938 64 " fill-opacity="1" fill-rule="nonzero"/><path fill="#2bed3e" d="M 142.382812 55.992188 C 141.070312 55.992188 140.007812 57.054688 140.007812 58.367188 L 140.007812 91.863281 C 140.007812 93.175781 141.070312 94.238281 142.382812 94.238281 C 143.691406 94.238281 144.753906 93.175781 144.753906 91.863281 L 144.753906 58.367188 C 144.753906 57.054688 143.691406 55.992188 142.382812 55.992188 " fill-opacity="1" fill-rule="nonzero"/><path fill="#2bed3e" d="M 151.050781 43.976562 C 149.738281 43.976562 148.675781 45.042969 148.675781 46.355469 L 148.675781 103.875 C 148.675781 105.1875 149.738281 106.25 151.050781 106.25 C 152.363281 106.25 153.425781 105.1875 153.425781 103.875 L 153.425781 46.355469 C 153.425781 45.042969 152.363281 43.976562 151.050781 43.976562 " fill-opacity="1" fill-rule="nonzero"/><path fill="#2bed3e" d="M 159.71875 35.96875 C 158.410156 35.96875 157.347656 37.035156 157.347656 38.347656 L 157.347656 111.882812 C 157.347656 113.195312 158.410156 114.257812 159.71875 114.257812 C 161.03125 114.257812 162.09375 113.195312 162.09375 111.882812 L 162.09375 38.347656 C 162.09375 37.035156 161.03125 35.96875 159.71875 35.96875 " fill-opacity="1" fill-rule="nonzero"/><path fill="#2bed3e" d="M 168.390625 43.976562 C 167.078125 43.976562 166.015625 45.042969 166.015625 46.355469 L 166.015625 103.875 C 166.015625 105.1875 167.078125 106.25 168.390625 106.25 C 169.703125 106.25 170.765625 105.1875 170.765625 103.875 L 170.765625 46.355469 C 170.765625 45.042969 169.703125 43.976562 168.390625 43.976562 " fill-opacity="1" fill-rule="nonzero"/><path fill="#2bed3e" d="M 177.058594 59.996094 C 175.75 59.996094 174.6875 61.058594 174.6875 62.371094 L 174.6875 87.859375 C 174.6875 89.171875 175.75 90.234375 177.058594 90.234375 C 178.371094 90.234375 179.433594 89.171875 179.433594 87.859375 L 179.433594 62.371094 C 179.433594 61.058594 178.371094 59.996094 177.058594 59.996094 " fill-opacity="1" fill-rule="nonzero"/><path fill="#2bed3e" d="M 185.730469 55.992188 C 184.417969 55.992188 183.355469 57.054688 183.355469 58.367188 L 183.355469 91.863281 C 183.355469 93.175781 184.417969 94.238281 185.730469 94.238281 C 187.039062 94.238281 188.101562 93.175781 188.101562 91.863281 L 188.101562 58.367188 C 188.101562 57.054688 187.039062 55.992188 185.730469 55.992188 " fill-opacity="1" fill-rule="nonzero"/><path fill="#2bed3e" d="M 194.398438 47.984375 C 193.089844 47.984375 192.023438 49.046875 192.023438 50.359375 L 192.023438 99.871094 C 192.023438 101.183594 193.089844 102.246094 194.398438 102.246094 C 195.710938 102.246094 196.773438 101.183594 196.773438 99.871094 L 196.773438 50.359375 C 196.773438 49.046875 195.710938 47.984375 194.398438 47.984375 " fill-opacity="1" fill-rule="nonzero"/><path fill="#2bed3e" d="M 203.070312 59.996094 C 201.757812 59.996094 200.695312 61.058594 200.695312 62.371094 L 200.695312 87.859375 C 200.695312 89.171875 201.757812 90.234375 203.070312 90.234375 C 204.378906 90.234375 205.445312 89.171875 205.445312 87.859375 L 205.445312 62.371094 C 205.445312 61.058594 204.378906 59.996094 203.070312 59.996094 " fill-opacity="1" fill-rule="nonzero"/><path fill="#2bed3e" d="M 211.738281 64 C 210.429688 64 209.367188 65.0625 209.367188 66.375 L 209.367188 83.855469 C 209.367188 85.164062 210.429688 86.230469 211.738281 86.230469 C 213.050781 86.230469 214.113281 85.164062 214.113281 83.855469 L 214.113281 66.375 C 214.113281 65.0625 213.050781 64 211.738281 64 " fill-opacity="1" fill-rule="nonzero"/><g clip-path="url(#0c33500baf)"><path fill="#2bed3e" d="M 220.410156 68.003906 C 219.097656 68.003906 218.035156 69.066406 218.035156 70.378906 L 218.035156 79.851562 C 218.035156 81.160156 219.097656 82.226562 220.410156 82.226562 C 221.71875 82.226562 222.78125 81.160156 222.78125 79.851562 L 222.78125 70.378906 C 222.78125 69.066406 221.71875 68.003906 220.410156 68.003906 " fill-opacity="1" fill-rule="nonzero"/></g><g clip-path="url(#1c47192714)"><path fill="#ffffff" d="M 67.625 23.945312 L 67.664062 76.230469 L 54.585938 76.230469 L 54.585938 89.300781 L 41.519531 76.230469 L 2.296875 76.230469 L 2.296875 23.945312 Z M 51.316406 40.28125 L 38.246094 40.28125 L 38.246094 53.355469 L 44.78125 63.160156 L 51.316406 63.160156 L 44.78125 53.355469 L 51.316406 53.355469 Z M 31.707031 40.28125 L 18.636719 40.28125 L 18.636719 53.355469 L 25.171875 63.160156 L 31.707031 63.160156 L 25.171875 53.355469 L 31.707031 53.355469 Z M 31.707031 40.28125 " fill-opacity="1" fill-rule="nonzero"/></g></svg>