<svg xmlns="http://www.w3.org/2000/svg" xmlns:xlink="http://www.w3.org/1999/xlink" width="100" zoomAndPan="magnify" viewBox="0 0 75 74.999997" height="100" preserveAspectRatio="xMidYMid meet" version="1.0"><defs><clipPath id="c5f6a3e8fb"><path d="M 0 12.546875 L 75 12.546875 L 75 62.796875 L 0 62.796875 Z M 0 12.546875 " clip-rule="nonzero"/></clipPath></defs><g clip-path="url(#c5f6a3e8fb)"><path fill="#ffffff" d="M 35.121094 30.421875 C 35.199219 30.1875 35.277344 29.933594 35.359375 29.667969 C 35.308594 29.847656 35.261719 30.019531 35.210938 30.183594 C 35.179688 30.273438 35.148438 30.351562 35.121094 30.421875 Z M 54.925781 29.867188 C 54.988281 30.039062 55.054688 30.203125 55.117188 30.359375 C 55.042969 30.160156 54.992188 30.023438 54.925781 29.867188 Z M 54.925781 29.867188 C 54.816406 29.582031 54.707031 29.273438 54.597656 28.945312 C 54.667969 29.171875 54.734375 29.386719 54.804688 29.585938 C 54.851562 29.695312 54.890625 29.785156 54.925781 29.867188 Z M 44.65625 14.738281 C 50.664062 14.453125 52.878906 23.886719 54.597656 28.945312 C 53.027344 23.808594 51.222656 12.542969 44.636719 12.824219 C 38.125 13.105469 36.746094 24.511719 35.359375 29.667969 C 36.867188 24.636719 38.800781 15.011719 44.65625 14.738281 Z M 35.121094 30.421875 C 35.054688 30.613281 35.003906 30.761719 34.925781 30.996094 C 34.992188 30.816406 35.054688 30.625 35.121094 30.421875 Z M 44.734375 19.035156 C 50.800781 18.761719 53.226562 27.957031 55.664062 31.96875 C 55.566406 31.667969 55.519531 31.515625 55.417969 31.207031 C 53.273438 26.984375 51.03125 16.707031 44.699219 17 C 38.539062 17.285156 36.570312 27.648438 34.652344 31.882812 C 34.554688 32.199219 34.511719 32.355469 34.417969 32.664062 C 36.636719 28.613281 38.816406 19.300781 44.734375 19.035156 Z M 44.800781 23.234375 C 50.339844 23.003906 53.121094 30.089844 56.226562 33.507812 C 56.105469 33.226562 56.050781 33.082031 55.945312 32.789062 C 53.160156 29.066406 50.550781 21.003906 44.769531 21.253906 C 39.109375 21.5 36.714844 29.695312 34.144531 33.496094 C 34.039062 33.789062 33.984375 33.933594 33.863281 34.210938 C 36.765625 30.683594 39.355469 23.460938 44.800781 23.234375 Z M 44.855469 27.324219 C 50.042969 27.148438 53.121094 32.269531 56.996094 34.902344 C 56.816406 34.65625 56.734375 34.527344 56.589844 34.261719 C 53.128906 31.242188 50.128906 25.167969 44.824219 25.375 C 39.59375 25.578125 36.769531 31.789062 33.484375 34.949219 C 33.332031 35.203125 33.25 35.324219 33.058594 35.554688 C 36.800781 32.738281 39.714844 27.5 44.855469 27.324219 Z M 58.175781 36.089844 C 57.898438 35.890625 57.777344 35.78125 57.550781 35.558594 C 53.367188 33.433594 49.894531 29.183594 44.867188 29.335938 C 39.875 29.484375 36.539062 33.851562 32.464844 36.152344 C 32.222656 36.355469 32.089844 36.449219 31.792969 36.617188 C 36.136719 34.828125 39.957031 31.171875 44.863281 31.042969 C 49.804688 30.910156 53.746094 34.460938 58.175781 36.089844 Z M 59.96875 37 C 59.554688 36.859375 59.371094 36.78125 59.027344 36.609375 C 54.300781 35.457031 49.835938 32.800781 44.859375 32.902344 C 39.917969 33.003906 35.539062 35.757812 30.871094 37.035156 C 30.503906 37.164062 30.300781 37.222656 29.855469 37.316406 C 34.859375 36.492188 39.734375 34.570312 44.851562 34.5 C 49.996094 34.429688 54.921875 36.269531 59.96875 37 Z M 16.945312 49.195312 C 12.976562 49.285156 11.191406 46.960938 9.316406 43.746094 C 9.453125 44.015625 9.519531 44.152344 9.652344 44.421875 C 11.292969 47.828125 12.890625 50.433594 16.984375 50.347656 C 21.023438 50.257812 22.238281 47.210938 23.578125 43.898438 C 23.699219 43.609375 23.757812 43.46875 23.886719 43.183594 C 22.308594 46.359375 20.863281 49.109375 16.945312 49.195312 Z M 16.871094 46.796875 C 13.109375 46.886719 10.917969 45.058594 8.53125 42.328125 C 8.695312 42.59375 8.773438 42.726562 8.921875 42.996094 C 11.0625 45.972656 13.058594 48.019531 16.902344 47.929688 C 20.707031 47.84375 22.40625 45.390625 24.257812 42.402344 C 24.402344 42.125 24.476562 41.988281 24.636719 41.714844 C 22.519531 44.5 20.589844 46.710938 16.871094 46.796875 Z M 7.554688 40.972656 C 7.765625 41.222656 7.863281 41.347656 8.046875 41.605469 C 13.824219 46.894531 19.753906 46.605469 25.113281 40.984375 C 25.296875 40.726562 25.394531 40.597656 25.605469 40.355469 C 19.695312 45.367188 13.824219 45.628906 7.554688 40.972656 Z M 6.300781 39.746094 C 6.570312 39.964844 6.699219 40.078125 6.9375 40.308594 C 13.78125 44.25 19.675781 44.035156 26.234375 39.707031 C 26.480469 39.480469 26.613281 39.375 26.894531 39.171875 C 19.753906 42.863281 13.636719 43.046875 6.300781 39.746094 Z M 4.683594 38.699219 C 5.03125 38.878906 5.195312 38.972656 5.503906 39.171875 C 13.402344 41.785156 19.960938 41.621094 27.726562 38.644531 C 28.050781 38.46875 28.222656 38.386719 28.59375 38.238281 C 20.257812 40.582031 13.113281 40.738281 4.683594 38.699219 Z M 2.613281 37.898438 C 3.054688 38.023438 3.265625 38.09375 3.660156 38.246094 C 12.652344 39.675781 20.734375 39.542969 29.679688 37.871094 C 30.101562 37.753906 30.324219 37.707031 30.800781 37.625 C 21.28125 38.722656 12.152344 38.828125 2.613281 37.898438 Z M 70.472656 26.117188 C 70.398438 25.777344 70.359375 25.617188 70.28125 25.304688 C 68.859375 21.246094 66.570312 21.609375 65.234375 25.359375 C 65.152344 25.675781 65.113281 25.84375 65.035156 26.183594 C 66.714844 22.582031 68.796875 22.503906 70.472656 26.117188 Z M 70.851562 28 C 70.777344 27.625 70.742188 27.4375 70.671875 27.078125 C 68.773438 23.789062 66.730469 23.851562 64.824219 27.160156 C 64.75 27.523438 64.714844 27.710938 64.636719 28.089844 C 66.738281 25.054688 68.753906 24.996094 70.851562 28 Z M 71.269531 30.03125 C 71.179688 29.636719 71.140625 29.441406 71.058594 29.054688 C 68.742188 26.378906 66.746094 26.429688 64.421875 29.15625 C 64.34375 29.546875 64.300781 29.742188 64.210938 30.136719 C 66.742188 27.703125 68.738281 27.65625 71.269531 30.03125 Z M 71.804688 32.109375 C 71.6875 31.71875 71.632812 31.519531 71.53125 31.125 C 68.757812 29.082031 66.71875 29.125 63.945312 31.234375 C 63.84375 31.628906 63.789062 31.828125 63.671875 32.21875 C 66.671875 30.417969 68.808594 30.378906 71.804688 32.109375 Z M 72.550781 34.128906 C 72.382812 33.757812 72.308594 33.566406 72.164062 33.183594 C 69.410156 31.667969 66.03125 31.648438 63.3125 33.285156 C 63.175781 33.667969 63.097656 33.855469 62.9375 34.222656 C 66.347656 33.058594 69.101562 33.011719 72.550781 34.128906 Z M 73.585938 35.980469 C 73.355469 35.652344 73.25 35.480469 73.050781 35.128906 C 69.515625 34.226562 65.972656 34.265625 62.445312 35.207031 C 62.253906 35.550781 62.152344 35.71875 61.929688 36.039062 C 65.910156 35.480469 69.601562 35.457031 73.585938 35.980469 Z M 54.476562 60.589844 C 52.125 60.730469 50.195312 57.339844 49.292969 55.78125 C 47.09375 51.972656 45.722656 47.71875 43.867188 43.746094 C 43.96875 44.015625 44.023438 44.152344 44.152344 44.421875 C 45.847656 48.753906 47.167969 53.316406 49.347656 57.4375 C 50.167969 58.992188 52.101562 62.792969 54.511719 62.648438 C 57.007812 62.496094 58.539062 58.839844 59.472656 56.917969 C 61.515625 52.714844 62.769531 48.144531 64.3125 43.742188 C 64.429688 43.457031 64.480469 43.316406 64.570312 43.03125 C 62.855469 47.09375 61.542969 51.367188 59.472656 55.265625 C 58.480469 57.136719 56.914062 60.445312 54.476562 60.589844 Z M 54.40625 56.289062 C 49.09375 56.59375 45.675781 45.726562 43.433594 42.328125 C 43.503906 42.59375 43.539062 42.726562 43.621094 42.996094 C 45.625 46.574219 47.050781 50.492188 49.261719 53.953125 C 50.242188 55.492188 52.164062 58.460938 54.4375 58.324219 C 56.796875 58.1875 58.390625 55.246094 59.445312 53.449219 C 61.539062 49.886719 62.910156 45.9375 64.785156 42.261719 C 64.855469 41.984375 64.886719 41.847656 64.949219 41.582031 C 62.871094 45.027344 59.59375 55.992188 54.40625 56.289062 Z M 54.34375 52.082031 C 49.339844 52.34375 45.882812 43.96875 43.050781 40.972656 C 43.132812 41.222656 43.167969 41.347656 43.238281 41.605469 C 45.78125 44.8125 49.226562 54.351562 54.371094 54.066406 C 59.410156 53.785156 62.738281 44.144531 65.121094 40.867188 C 65.183594 40.613281 65.21875 40.488281 65.296875 40.25 C 62.617188 43.339844 59.253906 51.824219 54.34375 52.082031 Z M 54.300781 48.023438 C 49.535156 48.234375 45.980469 42.144531 42.492188 39.746094 C 42.628906 39.964844 42.6875 40.078125 42.792969 40.308594 C 45.964844 43.019531 49.453125 50.167969 54.320312 49.929688 C 59.109375 49.695312 62.515625 42.445312 65.550781 39.621094 C 65.65625 39.402344 65.714844 39.300781 65.855469 39.101562 C 62.484375 41.632812 59.003906 47.816406 54.300781 48.023438 Z M 41.535156 38.699219 C 41.769531 38.878906 41.871094 38.972656 42.050781 39.171875 C 45.886719 41.171875 49.597656 46.15625 54.289062 45.980469 C 58.933594 45.800781 62.566406 40.730469 66.3125 38.59375 C 66.503906 38.425781 66.609375 38.34375 66.859375 38.203125 C 62.707031 39.941406 58.960938 43.996094 54.277344 44.136719 C 49.582031 44.277344 45.730469 40.300781 41.535156 38.699219 Z M 39.960938 37.898438 C 40.332031 38.023438 40.5 38.09375 40.800781 38.246094 C 45.285156 39.367188 49.546875 42.382812 54.285156 42.277344 C 59.003906 42.171875 63.191406 39.078125 67.644531 37.851562 C 67.964844 37.738281 68.144531 37.691406 68.546875 37.613281 C 63.777344 38.414062 59.167969 40.53125 54.292969 40.605469 C 49.40625 40.679688 44.746094 38.625 39.960938 37.898438 Z M 54.320312 38.886719 C 59.039062 38.851562 63.71875 37.992188 68.414062 37.566406 C 70.609375 37.566406 72.800781 37.566406 74.996094 37.566406 C 74.6875 37.296875 74.542969 37.152344 74.273438 36.851562 C 69.917969 36.609375 65.613281 36.621094 61.261719 36.882812 C 61.097656 37.066406 60.980469 37.191406 60.84375 37.320312 C 55.503906 36.972656 50.1875 36.136719 44.832031 36.171875 C 39.808594 36.203125 34.828125 36.984375 29.828125 37.402344 C 26.019531 37.402344 22.207031 37.402344 18.394531 37.402344 C 18.011719 37.140625 17.828125 37.011719 17.492188 36.757812 C 11.96875 36.511719 6.480469 36.523438 0.957031 36.789062 C 0.632812 37.03125 0.457031 37.15625 0.0859375 37.402344 C 0.0585938 37.402344 0.03125 37.402344 0.00390625 37.402344 C 0.0273438 37.40625 0.0507812 37.410156 0.0742188 37.410156 C 0.0742188 37.410156 0.0742188 37.410156 0.0742188 37.414062 C 0.0742188 37.414062 0.078125 37.414062 0.078125 37.414062 C 0.578125 37.46875 0.84375 37.507812 1.316406 37.597656 C 10.835938 37.988281 20.273438 37.972656 29.777344 37.566406 C 32.734375 37.566406 35.691406 37.566406 38.648438 37.566406 C 38.699219 37.574219 38.753906 37.585938 38.8125 37.597656 C 43.984375 37.925781 49.125 38.925781 54.320312 38.886719 Z M 12.660156 29.730469 C 12.566406 29.4375 12.519531 29.289062 12.417969 28.976562 C 10.597656 24.890625 7.746094 25.183594 6.007812 29.035156 C 5.898438 29.351562 5.851562 29.503906 5.75 29.800781 C 7.757812 26.199219 10.570312 25.953125 12.660156 29.730469 Z M 13.144531 31.167969 C 13.050781 30.910156 13.003906 30.777344 12.914062 30.507812 C 10.542969 27.074219 7.773438 27.28125 5.484375 30.589844 C 5.390625 30.863281 5.34375 31 5.25 31.257812 C 7.785156 28.222656 10.523438 28.050781 13.144531 31.167969 Z M 13.671875 32.457031 C 13.558594 32.222656 13.507812 32.101562 13.40625 31.859375 C 10.511719 29.09375 7.789062 29.230469 4.976562 31.957031 C 4.871094 32.203125 4.820312 32.324219 4.707031 32.5625 C 7.78125 30.125 10.519531 30.011719 13.671875 32.457031 Z M 14.355469 33.660156 C 14.203125 33.433594 14.132812 33.324219 14.003906 33.09375 C 10.558594 31.007812 7.746094 31.097656 4.367188 33.203125 C 4.238281 33.433594 4.167969 33.542969 4.019531 33.769531 C 7.230469 31.832031 11.109375 31.753906 14.355469 33.660156 Z M 15.300781 34.84375 C 15.089844 34.617188 14.992188 34.503906 14.8125 34.28125 C 10.808594 32.84375 7.546875 32.890625 3.566406 34.382812 C 3.386719 34.605469 3.292969 34.714844 3.085938 34.9375 C 7.105469 33.65625 11.265625 33.609375 15.300781 34.84375 Z M 16.617188 36.074219 C 16.324219 35.832031 16.191406 35.710938 15.9375 35.480469 C 11.335938 34.679688 7.058594 34.710938 2.464844 35.558594 C 2.21875 35.785156 2.089844 35.898438 1.804688 36.132812 C 6.785156 35.566406 11.632812 35.542969 16.617188 36.074219 Z M 16.617188 36.074219 " fill-opacity="1" fill-rule="nonzero"/></g></svg>